<?xml version="1.0" encoding="utf-8"?>
<!-- Generator: Adobe Illustrator 18.1.1, SVG Export Plug-In . SVG Version: 6.00 Build 0)  -->
<svg version="1.1" id="Layer_1" xmlns="http://www.w3.org/2000/svg" xmlns:xlink="http://www.w3.org/1999/xlink" x="0px" y="0px"
	 viewBox="0 0 3840 1080" enable-background="new 0 0 3840 1080" xml:space="preserve">
<title>love_icons</title>
<path fill="none" stroke="#000000" stroke-width="60" stroke-miterlimit="10" d="M1759.6,110.9c51.2-0.1,100.4,20.3,136.5,56.7
	l23.9,24.2l24.4-24.1c75.4-75.5,197.6-75.5,273.1-0.2c75.5,75.4,75.5,197.6,0.2,273.1l-6,6.1L1920,738.6l-297-298
	c-75.4-75.4-75.4-197.6-0.1-273c36.2-36.2,85.3-56.6,136.6-56.6"/>
<text transform="matrix(1 0 0 1 1488.0016 993.6031)" font-family="'HelveticaNeue-Bold'" font-size="43.2">Created by Rihards Gromuls</text>
<text transform="matrix(1 0 0 1 1488.0016 1036.8052)" font-family="'HelveticaNeue-Bold'" font-size="43.2">from the Noun Project</text>
<path fill="none" stroke="#000000" stroke-width="60" stroke-miterlimit="10" d="M1920.1,191.4l-75.7,75.7
	c-41.5,41.5-41.7,108.8-0.3,150.5l4.8,4.8c43.7,44.1,115.6,41.7,156.3-5.2l0,0c36.7-42.3,34.5-105.8-5.1-145.3l-80.2-80.2"/>
</svg>
